<svg xmlns="http://www.w3.org/2000/svg" width="32" height="32" viewBox="0 0 32 32">
  <defs>
    <style>
      .cls-1 {
        fill: #fff;
        opacity: 0.89;
      }

      .cls-2 {
        fill: #4a6277;
      }
    </style>
  </defs>
  <title>-----Risorsa 3</title>
  <g id="Livello_2" data-name="Livello 2">
    <g id="Livello_1-2" data-name="Livello 1">
      <g>
        <circle class="cls-1" cx="16" cy="16" r="16"/>
        <g>
          <path class="cls-2" d="M10.4,22.6a1,1,0,0,1-.71-.29,1,1,0,0,1,0-1.41L20.9,9.69a1,1,0,0,1,1.41,1.41L11.1,22.31A1,1,0,0,1,10.4,22.6Z"/>
          <path class="cls-2" d="M21.6,22.6a1,1,0,0,1-.7-.29L9.69,11.1A1,1,0,0,1,11.1,9.69L22.31,20.9a1,1,0,0,1,0,1.41A1,1,0,0,1,21.6,22.6Z"/>
        </g>
      </g>
    </g>
  </g>
</svg>
