<?xml version="1.0" encoding="UTF-8"?>
<svg width="42px" height="42px" viewBox="0 0 42 42" version="1.1" xmlns="http://www.w3.org/2000/svg" xmlns:xlink="http://www.w3.org/1999/xlink">
    <!-- Generator: Sketch 45.1 (43504) - http://www.bohemiancoding.com/sketch -->
    <title>Untitled</title>
    <desc>Created with Sketch.</desc>
    <defs>
        <polygon id="path-1" points="0 40.7145936 41.8903039 40.7145936 41.8903039 0.0189512373 0 0.0189512373"></polygon>
    </defs>
    <g id="Page-1" stroke="none" stroke-width="1" fill="none" fill-rule="evenodd">
        <g>
            <polygon id="Fill-1" fill="#90E889" points="0.690314101 25.9798232 6.48829231 25.9798232 6.48829231 17.0842347 0.690314101 17.0842347"></polygon>
            <polygon id="Fill-2" fill="#90E889" points="34.9524394 25.9798232 40.7504176 25.9798232 40.7504176 17.0842347 34.9524394 17.0842347"></polygon>
            <g id="Group-12" transform="translate(0.000000, 0.103315)">
                <path d="M34.9524638,38.5225712 L6.96442075,38.5225712 L6.96442075,14.4498538 C6.96442075,12.0589413 8.90955129,10.1138107 11.3004638,10.1138107 L30.6164207,10.1138107 C33.0073333,10.1138107 34.9524638,12.0589413 34.9524638,14.4498538 L34.9524638,38.5225712 Z" id="Fill-3" fill="#7EB7CF"></path>
                <path d="M15.4629747,18.030415 C17.0860565,18.030415 17.7044782,19.2097933 17.7626768,20.0987897 L13.1633949,20.0987897 C13.2790586,19.1712795 13.9359941,18.030415 15.4629747,18.030415 M19.230603,24.3306621 C19.230603,23.7508765 18.709016,23.344831 18.187429,23.344831 C18.032518,23.344831 17.8586556,23.3833448 17.7044782,23.4604947 C17.1245703,23.7697055 16.4094362,23.9246166 15.8878492,23.9246166 C14.3034035,23.9246166 13.3560862,22.9389077 13.2019087,21.7603853 L18.9600282,21.7603853 C19.5981347,21.7603853 20.1008927,21.2387983 20.1008927,20.6392056 C20.1008927,20.1758173 19.9655442,19.6542304 19.8301956,19.2286222 C19.1732602,17.2964519 17.5691296,16.0792934 15.4629747,16.0792934 C12.6221231,16.0792934 10.6316319,18.2624759 10.6316319,20.9681013 C10.6316319,23.9632526 12.7763006,25.876594 15.6171522,25.876594 C16.8538733,25.876594 19.230603,25.4320347 19.230603,24.3306621" id="Fill-5" fill="#000000"></path>
                <path d="M24.9430683,20.0987897 C25.058732,19.1712795 25.7156674,18.030415 27.2427704,18.030415 C28.8657299,18.030415 29.4841515,19.2097933 29.5423502,20.0987897 L24.9430683,20.0987897 Z M27.2427704,16.0792934 C24.4017965,16.0792934 22.4113053,18.2624759 22.4113053,20.9681013 C22.4113053,23.9632526 24.555974,25.876594 27.3969479,25.876594 C28.6336689,25.876594 31.0103986,25.4320347 31.0103986,24.3306621 C31.0103986,23.7508765 30.4888116,23.344831 29.9672247,23.344831 C29.8121913,23.344831 29.638329,23.3833448 29.4841515,23.4604947 C28.9042437,23.7697055 28.1891096,23.9247388 27.6675226,23.9247388 C26.0830769,23.9247388 25.1358818,22.9389077 24.9815821,21.7603853 L30.7398238,21.7603853 C31.3778081,21.7603853 31.8805661,21.2387983 31.8805661,20.6392056 C31.8805661,20.1758173 31.7452175,19.6542304 31.609869,19.2286222 C30.9529336,17.2964519 29.348803,16.0792934 27.2427704,16.0792934 L27.2427704,16.0792934 Z" id="Fill-7" fill="#000000"></path>
                <mask id="mask-2" fill="white">
                    <use xlink:href="#path-1"></use>
                </mask>
                <g id="Clip-10"></g>
                <path d="M37.2956681,25.014166 L39.6983182,25.014166 L39.6983182,17.6492261 L37.2956681,17.6492261 L37.2956681,25.014166 Z M34.9524394,38.5226079 L6.9643963,38.5226079 L6.9643963,14.4498905 C6.9643963,12.0589779 8.90952684,10.1138474 11.3004394,10.1138474 L30.6163963,10.1138474 C33.0073088,10.1138474 34.9524394,12.0589779 34.9524394,14.4498905 L34.9524394,38.5226079 Z M2.19198569,25.014166 L4.59475804,25.014166 L4.59475804,17.6492261 L2.19198569,17.6492261 L2.19198569,25.014166 Z M40.7941888,15.4571182 L37.144425,15.4571182 L37.144425,14.4498905 C37.144425,10.8503781 34.2159087,7.92186171 30.6163963,7.92186171 L27.2463772,7.92186171 L27.2463772,1.11494408 C27.2463772,0.509604883 26.7557236,0.0189512373 26.1503844,0.0189512373 C25.5451674,0.0189512373 25.0545138,0.509604883 25.0545138,1.11494408 L25.0545138,7.92186171 L16.8624441,7.92186171 L16.8624441,1.11494408 C16.8624441,0.509604883 16.3716682,0.0189512373 15.7664513,0.0189512373 C15.1611121,0.0189512373 14.6703362,0.509604883 14.6703362,1.11494408 L14.6703362,7.92186171 L11.3004394,7.92186171 C7.70092696,7.92186171 4.77241061,10.8503781 4.77241061,14.4498905 L4.77241061,15.4571182 L1.09599284,15.4571182 C0.490653646,15.4571182 0,15.9478941 0,16.5532333 L0,26.1101588 C0,26.715498 0.490653646,27.2061517 1.09599284,27.2061517 L4.77241061,27.2061517 L4.77241061,39.6186008 C4.77241061,40.22394 5.26306425,40.7145936 5.86840345,40.7145936 L36.0484322,40.7145936 C36.6537714,40.7145936 37.144425,40.22394 37.144425,39.6186008 L37.144425,27.2061517 L40.7941888,27.2061517 C41.399528,27.2061517 41.8903039,26.715498 41.8903039,26.1101588 L41.8903039,16.5532333 C41.8903039,15.9478941 41.399528,15.4571182 40.7941888,15.4571182 L40.7941888,15.4571182 Z" id="Fill-9" fill="#000000" mask="url(#mask-2)"></path>
                <path d="M24.9885024,31.2629636 L18.1883094,31.2629636 C17.5829702,31.2629636 17.0923165,31.7536172 17.0923165,32.3589564 C17.0923165,32.9642956 17.5829702,33.4549493 18.1883094,33.4549493 L24.9885024,33.4549493 C25.5938416,33.4549493 26.0844952,32.9642956 26.0844952,32.3589564 C26.0844952,31.7536172 25.5938416,31.2629636 24.9885024,31.2629636" id="Fill-11" fill="#000000" mask="url(#mask-2)"></path>
            </g>
        </g>
    </g>
</svg>