<?xml version="1.0" encoding="UTF-8"?>
<svg width="29px" height="24px" viewBox="0 0 29 24" version="1.1" xmlns="http://www.w3.org/2000/svg" xmlns:xlink="http://www.w3.org/1999/xlink">
    <!-- Generator: Sketch 45.1 (43504) - http://www.bohemiancoding.com/sketch -->
    <title>Group 5</title>
    <desc>Created with Sketch.</desc>
    <defs></defs>
    <g id="Page-1" stroke="none" stroke-width="1" fill="none" fill-rule="evenodd">
        <g id="Group-5" fill="#51C7FF">
            <path d="M0,22.2929 L1.414,23.7069 C6.538,18.5839 14.876,18.5839 20,23.7069 L21.414,22.2929 C15.51,16.3889 5.904,16.3889 0,22.2929" id="Fill-1"></path>
            <path d="M10.707,2 C13.464,2 15.707,4.243 15.707,7 C15.707,9.757 13.464,12 10.707,12 C7.95,12 5.707,9.757 5.707,7 C5.707,4.243 7.95,2 10.707,2 M10.707,14 C14.567,14 17.707,10.86 17.707,7 C17.707,3.14 14.567,0 10.707,0 C6.847,0 3.707,3.14 3.707,7 C3.707,10.86 6.847,14 10.707,14" id="Fill-3"></path>
            <path d="M26.1499,9.9868 C25.7789,10.4888 25.2199,10.7408 24.4719,10.7408 C23.7299,10.7408 23.1499,10.4968 22.7309,10.0098 C22.3129,9.5238 22.1039,8.9218 22.1039,8.2058 C22.1039,7.3898 22.3339,6.7788 22.7949,6.3738 C23.2549,5.9688 23.7909,5.7658 24.4009,5.7658 C25.2749,5.7658 25.8779,6.0288 26.2099,6.5518 C26.5409,7.0758 26.7069,7.6268 26.7069,8.2058 C26.7069,8.8908 26.5209,9.4838 26.1499,9.9868 M27.1489,5.3798 C26.4429,4.7738 25.6169,4.4708 24.6699,4.4708 C24.1119,4.4708 23.6069,4.5768 23.1539,4.7868 C22.6589,5.0238 22.2479,5.3818 21.9219,5.8608 C21.9749,4.4918 22.2349,3.4408 22.7039,2.7068 C23.1719,1.9718 23.8039,1.6048 24.5989,1.6048 C25.2939,1.6048 25.8119,1.8418 26.1539,2.3158 C26.3379,2.5688 26.4729,2.9188 26.5569,3.3658 L27.9619,3.3658 C27.9619,2.6708 27.7129,1.9958 27.2159,1.3408 C26.7189,0.6848 25.8379,0.3578 24.5749,0.3578 C22.8269,0.3578 21.6249,1.2948 20.9659,3.1688 C20.6239,4.1478 20.4529,5.3398 20.4529,6.7448 C20.4529,8.6458 20.8379,9.9968 21.6059,10.7998 C22.3749,11.6028 23.2879,12.0038 24.3459,12.0038 C25.5829,12.0038 26.5359,11.6078 27.2039,10.8158 C27.8729,10.0238 28.2069,9.1138 28.2069,8.0878 C28.2069,6.8868 27.8549,5.9848 27.1489,5.3798" id="Fill-5"></path>
        </g>
    </g>
</svg>